<svg width="75" height="75" viewBox="0 0 75 75" fill="none" xmlns="http://www.w3.org/2000/svg">
<path fill-rule="evenodd" clip-rule="evenodd" d="M0.9375 71.25C0.9375 70.5041 1.23382 69.7887 1.76126 69.2613C2.28871 68.7338 3.00408 68.4375 3.75 68.4375H71.25C71.9959 68.4375 72.7113 68.7338 73.2387 69.2613C73.7662 69.7887 74.0625 70.5041 74.0625 71.25C74.0625 71.9959 73.7662 72.7113 73.2387 73.2387C72.7113 73.7662 71.9959 74.0625 71.25 74.0625H3.75C3.00408 74.0625 2.28871 73.7662 1.76126 73.2387C1.23382 72.7113 0.9375 71.9959 0.9375 71.25Z" fill="black"/>
<path d="M20.625 34.6875H9.375C7.8217 34.6875 6.5625 35.9467 6.5625 37.5V71.25C6.5625 72.8033 7.8217 74.0625 9.375 74.0625H20.625C22.1783 74.0625 23.4375 72.8033 23.4375 71.25V37.5C23.4375 35.9467 22.1783 34.6875 20.625 34.6875Z" fill="black"/>
<path d="M43.125 0.9375H31.875C30.3217 0.9375 29.0625 2.1967 29.0625 3.75V71.25C29.0625 72.8033 30.3217 74.0625 31.875 74.0625H43.125C44.6783 74.0625 45.9375 72.8033 45.9375 71.25V3.75C45.9375 2.1967 44.6783 0.9375 43.125 0.9375Z" fill="black"/>
<path d="M65.625 17.8125H54.375C52.8217 17.8125 51.5625 19.0717 51.5625 20.625V71.25C51.5625 72.8033 52.8217 74.0625 54.375 74.0625H65.625C67.1783 74.0625 68.4375 72.8033 68.4375 71.25V20.625C68.4375 19.0717 67.1783 17.8125 65.625 17.8125Z" fill="black"/>
</svg>
