<svg width="60" height="60" viewBox="0 0 60 60" fill="none" xmlns="http://www.w3.org/2000/svg">
<path d="M31.7675 5.7325L54.2675 28.2325C55.8425 29.8075 54.7275 32.5 52.5 32.5H50V47.5C50 49.4891 49.2098 51.3968 47.8033 52.8033C46.3968 54.2098 44.4891 55 42.5 55H40V37.5C40.0001 35.587 39.2692 33.7462 37.9568 32.3543C36.6444 30.9625 34.8497 30.1247 32.94 30.0125L32.5 30H27.5C25.5109 30 23.6032 30.7902 22.1967 32.1967C20.7902 33.6032 20 35.5109 20 37.5V55H17.5C15.5109 55 13.6032 54.2098 12.1967 52.8033C10.7902 51.3968 10 49.4891 10 47.5V32.5H7.50001C5.27501 32.5 4.15751 29.8075 5.73251 28.2325L28.2325 5.7325C28.7013 5.26382 29.3371 5.00053 30 5.00053C30.6629 5.00053 31.2987 5.26382 31.7675 5.7325ZM32.5 35C33.163 35 33.7989 35.2634 34.2678 35.7322C34.7366 36.2011 35 36.837 35 37.5V55H25V37.5C25.0001 36.8877 25.2249 36.2967 25.6318 35.8391C26.0387 35.3815 26.5994 35.0891 27.2075 35.0175L27.5 35H32.5Z" fill="black"/>
</svg>
