<svg width="96" height="96" viewBox="0 0 96 96" fill="none" xmlns="http://www.w3.org/2000/svg">
<path d="M20.342 47.9013H12.4397L48 12.3409L83.5603 47.9013H75.658M20.342 47.9013V75.5593C20.342 77.6552 21.1745 79.6651 22.6565 81.1471C24.1385 82.6291 26.1484 83.4616 28.2443 83.4616H67.7557C69.8516 83.4616 71.8615 82.6291 73.3435 81.1471C74.8255 79.6651 75.658 77.6552 75.658 75.5593V47.9013" stroke="black" stroke-width="7.9023" stroke-linecap="round" stroke-linejoin="round"/>
<path d="M36.1466 83.4616V59.7547C36.1466 57.6589 36.9791 55.6489 38.4611 54.1669C39.9431 52.685 41.953 51.8524 44.0489 51.8524H51.9512C54.047 51.8524 56.057 52.685 57.5389 54.1669C59.0209 55.6489 59.8535 57.6589 59.8535 59.7547V83.4616" stroke="black" stroke-width="7.9023" stroke-linecap="round" stroke-linejoin="round"/>
</svg>
