<svg width="60" height="60" viewBox="0 0 60 60" fill="none" xmlns="http://www.w3.org/2000/svg">
<path d="M40 7.5C41.913 7.49989 43.7538 8.23081 45.1456 9.54321C46.5375 10.8556 47.3753 12.6503 47.4875 14.56L47.5 15V40H49.375C50.9925 40 52.325 41.23 52.485 42.805L52.5 43.125V47.5C52.5001 49.413 51.7692 51.2538 50.4568 52.6456C49.1444 54.0375 47.3497 54.8753 45.44 54.9875L45 55H20C18.087 55.0001 16.2462 54.2692 14.8543 52.9568C13.4625 51.6444 12.6247 49.8497 12.5125 47.94L12.5 47.5V22.5H8.125C7.35136 22.5004 6.60508 22.2137 6.03059 21.6956C5.45609 21.1774 5.09422 20.4646 5.015 19.695L5 19.375V15C4.99989 13.087 5.73081 11.2462 7.04321 9.85435C8.35561 8.46248 10.1503 7.62473 12.06 7.5125L12.5 7.5H40ZM47.5 45H25V47.5C25 48.375 24.85 49.2175 24.575 50H45C45.663 50 46.2989 49.7366 46.7678 49.2678C47.2366 48.7989 47.5 48.163 47.5 47.5V45ZM30 30H25C24.3628 30.0007 23.7499 30.2447 23.2866 30.6821C22.8232 31.1195 22.5444 31.7174 22.5071 32.3535C22.4697 32.9896 22.6767 33.6159 23.0857 34.1046C23.4946 34.5932 24.0748 34.9072 24.7075 34.9825L25 35H30C30.6372 34.9993 31.2501 34.7553 31.7134 34.3179C32.1768 33.8805 32.4556 33.2826 32.4929 32.6465C32.5303 32.0104 32.3233 31.3841 31.9143 30.8954C31.5054 30.4068 30.9252 30.0928 30.2925 30.0175L30 30ZM35 20H25C24.337 20 23.7011 20.2634 23.2322 20.7322C22.7634 21.2011 22.5 21.837 22.5 22.5C22.5 23.163 22.7634 23.7989 23.2322 24.2678C23.7011 24.7366 24.337 25 25 25H35C35.663 25 36.2989 24.7366 36.7678 24.2678C37.2366 23.7989 37.5 23.163 37.5 22.5C37.5 21.837 37.2366 21.2011 36.7678 20.7322C36.2989 20.2634 35.663 20 35 20ZM12.5 12.5C11.837 12.5 11.2011 12.7634 10.7322 13.2322C10.2634 13.7011 10 14.337 10 15V17.5H12.5V12.5Z" fill="black"/>
</svg>
