<svg width="60" height="60" viewBox="0 0 60 60" fill="none" xmlns="http://www.w3.org/2000/svg">
<path d="M40 7.5C41.913 7.49989 43.7538 8.23081 45.1456 9.54321C46.5375 10.8556 47.3753 12.6503 47.4875 14.56L47.5 15V40H49.375C50.9925 40 52.325 41.23 52.485 42.805L52.5 43.125V47.5C52.5001 49.413 51.7692 51.2538 50.4568 52.6456C49.1444 54.0375 47.3497 54.8753 45.44 54.9875L45 55H20C18.087 55.0001 16.2462 54.2692 14.8543 52.9568C13.4625 51.6444 12.6247 49.8497 12.5125 47.94L12.5 47.5V22.5H8.125C7.35136 22.5004 6.60508 22.2137 6.03059 21.6956C5.45609 21.1774 5.09422 20.4646 5.015 19.695L5 19.375V15C4.99989 13.087 5.73081 11.2462 7.04321 9.85435C8.35561 8.46248 10.1503 7.62473 12.06 7.5125L12.5 7.5H40ZM40 12.5H17.5V47.5C17.5 48.163 17.7634 48.7989 18.2322 49.2678C18.7011 49.7366 19.337 50 20 50C20.663 50 21.2989 49.7366 21.7678 49.2678C22.2366 48.7989 22.5 48.163 22.5 47.5V43.125C22.5 41.4 23.9 40 25.625 40H42.5V15C42.5 14.337 42.2366 13.7011 41.7678 13.2322C41.2989 12.7634 40.663 12.5 40 12.5ZM47.5 45H27.5V47.5C27.5 48.375 27.35 49.2175 27.075 50H45C45.663 50 46.2989 49.7366 46.7678 49.2678C47.2366 48.7989 47.5 48.163 47.5 47.5V45ZM30 30C30.663 30 31.2989 30.2634 31.7678 30.7322C32.2366 31.2011 32.5 31.837 32.5 32.5C32.5 33.163 32.2366 33.7989 31.7678 34.2678C31.2989 34.7366 30.663 35 30 35H25C24.337 35 23.7011 34.7366 23.2322 34.2678C22.7634 33.7989 22.5 33.163 22.5 32.5C22.5 31.837 22.7634 31.2011 23.2322 30.7322C23.7011 30.2634 24.337 30 25 30H30ZM35 20C35.663 20 36.2989 20.2634 36.7678 20.7322C37.2366 21.2011 37.5 21.837 37.5 22.5C37.5 23.163 37.2366 23.7989 36.7678 24.2678C36.2989 24.7366 35.663 25 35 25H25C24.337 25 23.7011 24.7366 23.2322 24.2678C22.7634 23.7989 22.5 23.163 22.5 22.5C22.5 21.837 22.7634 21.2011 23.2322 20.7322C23.7011 20.2634 24.337 20 25 20H35ZM12.5 12.5C11.8877 12.5001 11.2967 12.7249 10.8391 13.1318C10.3815 13.5387 10.0891 14.0994 10.0175 14.7075L10 15V17.5H12.5V12.5Z" fill="black"/>
</svg>
