<svg width="47" height="47" viewBox="0 0 47 47" fill="none" xmlns="http://www.w3.org/2000/svg">
<path d="M20.9534 24.8879V33.5524L13.4534 29.2223V20.5578L20.9534 24.8879Z" fill="url(#paint0_radial_96_351)"/>
<path fill-rule="evenodd" clip-rule="evenodd" d="M43.3691 6.51549C43.5265 4.94225 43.1667 4.27592 42.8988 4.00791C42.6309 3.74002 41.9645 3.38026 40.3913 3.53764C38.8419 3.69268 36.7951 4.32643 34.3556 5.51166C33.2196 6.06362 32.0264 6.72139 30.7918 7.47842L28.3451 6.06584C35.6839 1.31354 42.0265 -0.399861 44.6666 2.24014C47.2857 4.85928 45.62 11.1226 40.9533 18.3874V13.4292C41.1046 13.1386 41.2518 12.8459 41.3951 12.5512C42.5803 10.1116 43.2141 8.06483 43.3691 6.51549ZM40.9533 28.5193V33.4775C41.1046 33.7681 41.2518 34.0608 41.3951 34.3555C42.5804 36.7951 43.2142 38.8419 43.3691 40.3912C43.5266 41.9645 43.1668 42.6308 42.8988 42.8988C42.6309 43.1667 41.9645 43.5265 40.3914 43.3691C38.8419 43.214 36.7951 42.5803 34.3556 41.3951C33.2173 40.842 32.0215 40.1826 30.7841 39.4236L28.3376 40.8361C35.6796 45.592 42.0257 47.3075 44.6666 44.6666C47.2857 42.0474 45.62 35.7841 40.9533 28.5193ZM18.5691 40.8361L16.1227 39.4236C14.8853 40.1826 13.6895 40.842 12.5512 41.3951C10.1116 42.5803 8.06484 43.214 6.51551 43.3691C4.94226 43.5265 4.27594 43.1667 4.00793 42.8988C3.74004 42.6308 3.38027 41.9645 3.53766 40.3912C3.69269 38.8419 4.32644 36.7951 5.51168 34.3555C5.65493 34.0609 5.80217 33.7683 5.95336 33.4778V28.5196C1.28672 35.7844 -0.378985 42.0474 2.24016 44.6666C4.88109 47.3075 11.2271 45.592 18.5691 40.8361ZM5.95336 18.3872C1.28672 11.1224 -0.378985 4.85928 2.24016 2.24014C4.88027 -0.399861 11.2228 1.31354 18.5616 6.06572L16.1149 7.4783C14.8802 6.72127 13.6871 6.0635 12.5512 5.51166C10.1116 4.32631 8.06484 3.69268 6.51551 3.53764C4.94226 3.38026 4.27594 3.74002 4.00793 4.00791C3.74004 4.27592 3.38027 4.94225 3.53766 6.51549C3.69269 8.06483 4.32644 10.1116 5.51168 12.5512C5.65492 12.8458 5.80216 13.1383 5.95336 13.4288V18.3872Z" fill="black"/>
<path fill-rule="evenodd" clip-rule="evenodd" d="M23.4533 6.1283L38.4533 14.7886V32.109L23.4533 40.7693L8.45332 32.109V14.7885L23.4533 6.1283ZM33.4533 29.2223V20.5578L25.9533 24.8879V33.5524L33.4533 29.2223ZM20.9534 33.5524V24.8879L13.4534 20.5578V29.2223L20.9534 33.5524ZM15.957 16.2296L23.4533 20.5577L30.9497 16.2296L23.4533 11.9017L15.957 16.2296Z" fill="black"/>
<path d="M23.4533 20.5577L15.957 16.2296L23.4533 11.9017L30.9497 16.2296L23.4533 20.5577Z" fill="url(#paint1_radial_96_351)"/>
<path d="M33.4533 20.5578V29.2223L25.9533 33.5524V24.8879L33.4533 20.5578Z" fill="url(#paint2_radial_96_351)"/>
<path d="M20.9534 24.8879V33.5524L13.4534 29.2223V20.5578L20.9534 24.8879Z" stroke="black"/>
<path fill-rule="evenodd" clip-rule="evenodd" d="M43.3691 6.51549C43.5265 4.94225 43.1667 4.27592 42.8988 4.00791C42.6309 3.74002 41.9645 3.38026 40.3913 3.53764C38.8419 3.69268 36.7951 4.32643 34.3556 5.51166C33.2196 6.06362 32.0264 6.72139 30.7918 7.47842L28.3451 6.06584C35.6839 1.31354 42.0265 -0.399861 44.6666 2.24014C47.2857 4.85928 45.62 11.1226 40.9533 18.3874V13.4292C41.1046 13.1386 41.2518 12.8459 41.3951 12.5512C42.5803 10.1116 43.2141 8.06483 43.3691 6.51549ZM40.9533 28.5193V33.4775C41.1046 33.7681 41.2518 34.0608 41.3951 34.3555C42.5804 36.7951 43.2142 38.8419 43.3691 40.3912C43.5266 41.9645 43.1668 42.6308 42.8988 42.8988C42.6309 43.1667 41.9645 43.5265 40.3914 43.3691C38.8419 43.214 36.7951 42.5803 34.3556 41.3951C33.2173 40.842 32.0215 40.1826 30.7841 39.4236L28.3376 40.8361C35.6796 45.592 42.0257 47.3075 44.6666 44.6666C47.2857 42.0474 45.62 35.7841 40.9533 28.5193ZM18.5691 40.8361L16.1227 39.4236C14.8853 40.1826 13.6895 40.842 12.5512 41.3951C10.1116 42.5803 8.06484 43.214 6.51551 43.3691C4.94226 43.5265 4.27594 43.1667 4.00793 42.8988C3.74004 42.6308 3.38027 41.9645 3.53766 40.3912C3.69269 38.8419 4.32644 36.7951 5.51168 34.3555C5.65493 34.0609 5.80217 33.7683 5.95336 33.4778V28.5196C1.28672 35.7844 -0.378985 42.0474 2.24016 44.6666C4.88109 47.3075 11.2271 45.592 18.5691 40.8361ZM5.95336 18.3872C1.28672 11.1224 -0.378985 4.85928 2.24016 2.24014C4.88027 -0.399861 11.2228 1.31354 18.5616 6.06572L16.1149 7.4783C14.8802 6.72127 13.6871 6.0635 12.5512 5.51166C10.1116 4.32631 8.06484 3.69268 6.51551 3.53764C4.94226 3.38026 4.27594 3.74002 4.00793 4.00791C3.74004 4.27592 3.38027 4.94225 3.53766 6.51549C3.69269 8.06483 4.32644 10.1116 5.51168 12.5512C5.65492 12.8458 5.80216 13.1383 5.95336 13.4288V18.3872Z" stroke="black"/>
<path fill-rule="evenodd" clip-rule="evenodd" d="M23.4533 6.1283L38.4533 14.7886V32.109L23.4533 40.7693L8.45332 32.109V14.7885L23.4533 6.1283ZM33.4533 29.2223V20.5578L25.9533 24.8879V33.5524L33.4533 29.2223ZM20.9534 33.5524V24.8879L13.4534 20.5578V29.2223L20.9534 33.5524ZM15.957 16.2296L23.4533 20.5577L30.9497 16.2296L23.4533 11.9017L15.957 16.2296Z" stroke="black"/>
<path d="M23.4533 20.5577L15.957 16.2296L23.4533 11.9017L30.9497 16.2296L23.4533 20.5577Z" stroke="black"/>
<path d="M33.4533 20.5578V29.2223L25.9533 33.5524V24.8879L33.4533 20.5578Z" stroke="black"/>
<defs>
<radialGradient id="paint0_radial_96_351" cx="0" cy="0" r="1" gradientUnits="userSpaceOnUse" gradientTransform="translate(23.4534 23.4534) rotate(90) scale(22.4534 22.4534)">
<stop offset="0.259615" stop-color="#212121"/>
<stop offset="1" stop-color="#878787"/>
</radialGradient>
<radialGradient id="paint1_radial_96_351" cx="0" cy="0" r="1" gradientUnits="userSpaceOnUse" gradientTransform="translate(23.4534 23.4534) rotate(90) scale(22.4534 22.4534)">
<stop offset="0.115385"/>
<stop offset="1" stop-color="#666666"/>
</radialGradient>
<radialGradient id="paint2_radial_96_351" cx="0" cy="0" r="1" gradientUnits="userSpaceOnUse" gradientTransform="translate(23.4534 23.4534) rotate(90) scale(22.4534 22.4534)">
<stop offset="0.0817308"/>
<stop offset="1" stop-color="#666666"/>
</radialGradient>
</defs>
</svg>
